<mxfile host="app.diagrams.net" modified="2023-09-08T06:44:23.466Z" agent="Mozilla/5.0 (Macintosh; Intel Mac OS X 10_15_7) AppleWebKit/537.36 (KHTML, like Gecko) Chrome/116.0.0.0 Safari/537.36" etag="6P0JKBDOowbSmgBQA2To" version="21.7.2" type="github">
  <diagram name="Page-1" id="G8g67aC8LQwusOpC-o-B">
    <mxGraphModel dx="1306" dy="747" grid="1" gridSize="10" guides="1" tooltips="1" connect="1" arrows="1" fold="1" page="1" pageScale="1" pageWidth="827" pageHeight="1169" math="0" shadow="0">
      <root>
        <mxCell id="0" />
        <mxCell id="1" parent="0" />
        <mxCell id="dkoMHG8kSQWPY7BwaKGa-1" value="" style="rounded=0;whiteSpace=wrap;html=1;" vertex="1" parent="1">
          <mxGeometry x="40" y="40" width="1120" height="120" as="geometry" />
        </mxCell>
        <mxCell id="dkoMHG8kSQWPY7BwaKGa-3" value="" style="rounded=0;whiteSpace=wrap;html=1;fillColor=#bac8d3;strokeColor=#23445d;" vertex="1" parent="1">
          <mxGeometry x="40" y="160" width="160" height="520" as="geometry" />
        </mxCell>
        <mxCell id="dkoMHG8kSQWPY7BwaKGa-4" value="" style="rounded=0;whiteSpace=wrap;html=1;fillColor=#bac8d3;strokeColor=#23445d;" vertex="1" parent="1">
          <mxGeometry x="200" y="160" width="160" height="520" as="geometry" />
        </mxCell>
        <mxCell id="dkoMHG8kSQWPY7BwaKGa-5" value="" style="rounded=0;whiteSpace=wrap;html=1;fillColor=#bac8d3;strokeColor=#23445d;" vertex="1" parent="1">
          <mxGeometry x="360" y="160" width="160" height="520" as="geometry" />
        </mxCell>
        <mxCell id="dkoMHG8kSQWPY7BwaKGa-6" value="" style="rounded=0;whiteSpace=wrap;html=1;fillColor=#bac8d3;strokeColor=#23445d;" vertex="1" parent="1">
          <mxGeometry x="520" y="160" width="160" height="520" as="geometry" />
        </mxCell>
        <mxCell id="dkoMHG8kSQWPY7BwaKGa-7" value="" style="rounded=0;whiteSpace=wrap;html=1;fillColor=#bac8d3;strokeColor=#23445d;" vertex="1" parent="1">
          <mxGeometry x="680" y="160" width="160" height="520" as="geometry" />
        </mxCell>
        <mxCell id="dkoMHG8kSQWPY7BwaKGa-8" value="" style="rounded=0;whiteSpace=wrap;html=1;fillColor=#647687;fontColor=#ffffff;strokeColor=#314354;" vertex="1" parent="1">
          <mxGeometry x="840" y="480" width="320" height="10" as="geometry" />
        </mxCell>
        <mxCell id="dkoMHG8kSQWPY7BwaKGa-10" value="" style="rounded=0;whiteSpace=wrap;html=1;fillColor=#bac8d3;strokeColor=#23445d;" vertex="1" parent="1">
          <mxGeometry x="1040" y="490" width="120" height="190" as="geometry" />
        </mxCell>
        <mxCell id="dkoMHG8kSQWPY7BwaKGa-11" value="" style="rounded=0;whiteSpace=wrap;html=1;fillColor=#647687;fontColor=#ffffff;strokeColor=#314354;" vertex="1" parent="1">
          <mxGeometry x="40" y="40" width="160" height="120" as="geometry" />
        </mxCell>
        <mxCell id="dkoMHG8kSQWPY7BwaKGa-12" value="" style="rounded=0;whiteSpace=wrap;html=1;fillColor=#647687;fontColor=#ffffff;strokeColor=#314354;" vertex="1" parent="1">
          <mxGeometry x="200" y="40" width="160" height="120" as="geometry" />
        </mxCell>
        <mxCell id="dkoMHG8kSQWPY7BwaKGa-13" value="" style="rounded=0;whiteSpace=wrap;html=1;fillColor=#647687;fontColor=#ffffff;strokeColor=#314354;" vertex="1" parent="1">
          <mxGeometry x="360" y="40" width="160" height="120" as="geometry" />
        </mxCell>
        <mxCell id="dkoMHG8kSQWPY7BwaKGa-14" value="" style="rounded=0;whiteSpace=wrap;html=1;fillColor=#647687;fontColor=#ffffff;strokeColor=#314354;" vertex="1" parent="1">
          <mxGeometry x="520" y="40" width="160" height="120" as="geometry" />
        </mxCell>
        <mxCell id="dkoMHG8kSQWPY7BwaKGa-15" value="" style="rounded=0;whiteSpace=wrap;html=1;fillColor=#647687;fontColor=#ffffff;strokeColor=#314354;" vertex="1" parent="1">
          <mxGeometry x="680" y="40" width="160" height="120" as="geometry" />
        </mxCell>
        <mxCell id="dkoMHG8kSQWPY7BwaKGa-16" value="" style="rounded=0;whiteSpace=wrap;html=1;fillColor=#647687;fontColor=#ffffff;strokeColor=#314354;" vertex="1" parent="1">
          <mxGeometry x="840" y="40" width="160" height="120" as="geometry" />
        </mxCell>
        <mxCell id="dkoMHG8kSQWPY7BwaKGa-17" value="" style="rounded=0;whiteSpace=wrap;html=1;fillColor=#647687;fontColor=#ffffff;strokeColor=#314354;" vertex="1" parent="1">
          <mxGeometry x="1000" y="40" width="160" height="120" as="geometry" />
        </mxCell>
        <mxCell id="dkoMHG8kSQWPY7BwaKGa-18" value="" style="rounded=0;whiteSpace=wrap;html=1;" vertex="1" parent="1">
          <mxGeometry x="180" y="370" width="10" height="60" as="geometry" />
        </mxCell>
        <mxCell id="dkoMHG8kSQWPY7BwaKGa-19" value="" style="rounded=0;whiteSpace=wrap;html=1;" vertex="1" parent="1">
          <mxGeometry x="340" y="370" width="10" height="60" as="geometry" />
        </mxCell>
        <mxCell id="dkoMHG8kSQWPY7BwaKGa-20" value="" style="rounded=0;whiteSpace=wrap;html=1;" vertex="1" parent="1">
          <mxGeometry x="500" y="370" width="10" height="60" as="geometry" />
        </mxCell>
        <mxCell id="dkoMHG8kSQWPY7BwaKGa-21" value="" style="rounded=0;whiteSpace=wrap;html=1;" vertex="1" parent="1">
          <mxGeometry x="660" y="370" width="10" height="60" as="geometry" />
        </mxCell>
        <mxCell id="dkoMHG8kSQWPY7BwaKGa-22" value="" style="rounded=0;whiteSpace=wrap;html=1;" vertex="1" parent="1">
          <mxGeometry x="817" y="370" width="10" height="60" as="geometry" />
        </mxCell>
        <mxCell id="dkoMHG8kSQWPY7BwaKGa-24" value="" style="rounded=0;whiteSpace=wrap;html=1;" vertex="1" parent="1">
          <mxGeometry x="180" y="70" width="10" height="60" as="geometry" />
        </mxCell>
        <mxCell id="dkoMHG8kSQWPY7BwaKGa-25" value="" style="rounded=0;whiteSpace=wrap;html=1;" vertex="1" parent="1">
          <mxGeometry x="340" y="70" width="10" height="60" as="geometry" />
        </mxCell>
        <mxCell id="dkoMHG8kSQWPY7BwaKGa-26" value="" style="rounded=0;whiteSpace=wrap;html=1;" vertex="1" parent="1">
          <mxGeometry x="500" y="70" width="10" height="60" as="geometry" />
        </mxCell>
        <mxCell id="dkoMHG8kSQWPY7BwaKGa-28" value="" style="rounded=0;whiteSpace=wrap;html=1;" vertex="1" parent="1">
          <mxGeometry x="660" y="70" width="10" height="60" as="geometry" />
        </mxCell>
        <mxCell id="dkoMHG8kSQWPY7BwaKGa-29" value="" style="rounded=0;whiteSpace=wrap;html=1;" vertex="1" parent="1">
          <mxGeometry x="817" y="70" width="10" height="60" as="geometry" />
        </mxCell>
        <mxCell id="dkoMHG8kSQWPY7BwaKGa-31" value="" style="rounded=0;whiteSpace=wrap;html=1;" vertex="1" parent="1">
          <mxGeometry x="980" y="70" width="10" height="60" as="geometry" />
        </mxCell>
        <mxCell id="dkoMHG8kSQWPY7BwaKGa-32" value="" style="rounded=0;whiteSpace=wrap;html=1;" vertex="1" parent="1">
          <mxGeometry x="1140" y="70" width="10" height="60" as="geometry" />
        </mxCell>
        <mxCell id="dkoMHG8kSQWPY7BwaKGa-33" value="" style="rounded=0;whiteSpace=wrap;html=1;" vertex="1" parent="1">
          <mxGeometry x="1050" y="550" width="10" height="60" as="geometry" />
        </mxCell>
      </root>
    </mxGraphModel>
  </diagram>
</mxfile>
